<mxfile host="app.diagrams.net" modified="2022-03-23T22:54:54.869Z" agent="5.0 (Windows NT 10.0; Win64; x64) AppleWebKit/537.36 (KHTML, like Gecko) Chrome/99.0.4844.74 Safari/537.36" etag="npAKpMmP7RyfUGCAgHe5" version="17.2.1" type="github">
  <diagram id="5hWkkJwb_R7D71X7_Qy8" name="Page-1">
    <mxGraphModel dx="2249" dy="794" grid="1" gridSize="10" guides="1" tooltips="1" connect="1" arrows="1" fold="1" page="1" pageScale="1" pageWidth="827" pageHeight="1169" math="0" shadow="0">
      <root>
        <mxCell id="0" />
        <mxCell id="1" parent="0" />
        <mxCell id="KapmfFKW6zKVz0AodKhJ-1" value="Cinema" style="rounded=0;whiteSpace=wrap;html=1;" parent="1" vertex="1">
          <mxGeometry x="120" y="100" width="120" height="40" as="geometry" />
        </mxCell>
        <mxCell id="KapmfFKW6zKVz0AodKhJ-2" value="Filme" style="rounded=0;whiteSpace=wrap;html=1;" parent="1" vertex="1">
          <mxGeometry x="498" y="400" width="120" height="40" as="geometry" />
        </mxCell>
        <mxCell id="KapmfFKW6zKVz0AodKhJ-3" value="Ator" style="rounded=0;whiteSpace=wrap;html=1;" parent="1" vertex="1">
          <mxGeometry x="110" y="400" width="120" height="40" as="geometry" />
        </mxCell>
        <mxCell id="KapmfFKW6zKVz0AodKhJ-4" value="Nacional" style="rounded=0;whiteSpace=wrap;html=1;" parent="1" vertex="1">
          <mxGeometry x="408" y="535" width="120" height="40" as="geometry" />
        </mxCell>
        <mxCell id="KapmfFKW6zKVz0AodKhJ-5" value="Estrangeiro" style="rounded=0;whiteSpace=wrap;html=1;" parent="1" vertex="1">
          <mxGeometry x="588" y="535" width="120" height="40" as="geometry" />
        </mxCell>
        <mxCell id="KapmfFKW6zKVz0AodKhJ-6" value="Sessão" style="rounded=0;whiteSpace=wrap;html=1;" parent="1" vertex="1">
          <mxGeometry x="499" y="100" width="120" height="40" as="geometry" />
        </mxCell>
        <mxCell id="KapmfFKW6zKVz0AodKhJ-10" value="ID" style="ellipse;whiteSpace=wrap;html=1;align=center;fontStyle=4;" parent="1" vertex="1">
          <mxGeometry x="135" y="150" width="90" height="30" as="geometry" />
        </mxCell>
        <mxCell id="KapmfFKW6zKVz0AodKhJ-11" value="Nome" style="ellipse;whiteSpace=wrap;html=1;align=center;" parent="1" vertex="1">
          <mxGeometry x="135" y="190" width="90" height="30" as="geometry" />
        </mxCell>
        <mxCell id="KapmfFKW6zKVz0AodKhJ-12" value="Municipio" style="ellipse;whiteSpace=wrap;html=1;align=center;" parent="1" vertex="1">
          <mxGeometry x="-10" y="290" width="90" height="30" as="geometry" />
        </mxCell>
        <mxCell id="KapmfFKW6zKVz0AodKhJ-13" value="Capacidade" style="ellipse;whiteSpace=wrap;html=1;align=center;" parent="1" vertex="1">
          <mxGeometry x="135" y="270" width="90" height="30" as="geometry" />
        </mxCell>
        <mxCell id="KapmfFKW6zKVz0AodKhJ-14" value="Bairro" style="ellipse;whiteSpace=wrap;html=1;align=center;" parent="1" vertex="1">
          <mxGeometry x="-10" y="170" width="90" height="30" as="geometry" />
        </mxCell>
        <mxCell id="KapmfFKW6zKVz0AodKhJ-15" value="Estado" style="ellipse;whiteSpace=wrap;html=1;align=center;" parent="1" vertex="1">
          <mxGeometry x="-10" y="250" width="90" height="30" as="geometry" />
        </mxCell>
        <mxCell id="KapmfFKW6zKVz0AodKhJ-16" value="Endereço" style="ellipse;whiteSpace=wrap;html=1;align=center;" parent="1" vertex="1">
          <mxGeometry x="135" y="230" width="90" height="30" as="geometry" />
        </mxCell>
        <mxCell id="KapmfFKW6zKVz0AodKhJ-17" value="Rua" style="ellipse;whiteSpace=wrap;html=1;align=center;" parent="1" vertex="1">
          <mxGeometry x="-10" y="210" width="90" height="30" as="geometry" />
        </mxCell>
        <mxCell id="KapmfFKW6zKVz0AodKhJ-18" value="" style="endArrow=none;html=1;rounded=0;exitX=0.5;exitY=1;exitDx=0;exitDy=0;entryX=0.5;entryY=0;entryDx=0;entryDy=0;" parent="1" source="KapmfFKW6zKVz0AodKhJ-1" target="KapmfFKW6zKVz0AodKhJ-10" edge="1">
          <mxGeometry relative="1" as="geometry">
            <mxPoint x="300" y="180" as="sourcePoint" />
            <mxPoint x="460" y="180" as="targetPoint" />
          </mxGeometry>
        </mxCell>
        <mxCell id="KapmfFKW6zKVz0AodKhJ-22" value="" style="endArrow=none;html=1;rounded=0;exitX=1;exitY=0.5;exitDx=0;exitDy=0;entryX=0;entryY=0.5;entryDx=0;entryDy=0;" parent="1" source="KapmfFKW6zKVz0AodKhJ-14" target="KapmfFKW6zKVz0AodKhJ-16" edge="1">
          <mxGeometry relative="1" as="geometry">
            <mxPoint x="-50" y="70" as="sourcePoint" />
            <mxPoint x="110" y="70" as="targetPoint" />
          </mxGeometry>
        </mxCell>
        <mxCell id="KapmfFKW6zKVz0AodKhJ-23" value="" style="endArrow=none;html=1;rounded=0;exitX=1;exitY=0.5;exitDx=0;exitDy=0;entryX=0;entryY=0.5;entryDx=0;entryDy=0;" parent="1" source="KapmfFKW6zKVz0AodKhJ-17" target="KapmfFKW6zKVz0AodKhJ-16" edge="1">
          <mxGeometry relative="1" as="geometry">
            <mxPoint x="90" y="215" as="sourcePoint" />
            <mxPoint x="145" y="255" as="targetPoint" />
          </mxGeometry>
        </mxCell>
        <mxCell id="KapmfFKW6zKVz0AodKhJ-24" value="" style="endArrow=none;html=1;rounded=0;exitX=1;exitY=0.5;exitDx=0;exitDy=0;entryX=0;entryY=0.5;entryDx=0;entryDy=0;" parent="1" source="KapmfFKW6zKVz0AodKhJ-15" target="KapmfFKW6zKVz0AodKhJ-16" edge="1">
          <mxGeometry relative="1" as="geometry">
            <mxPoint x="90" y="255" as="sourcePoint" />
            <mxPoint x="130" y="250" as="targetPoint" />
          </mxGeometry>
        </mxCell>
        <mxCell id="KapmfFKW6zKVz0AodKhJ-25" value="" style="endArrow=none;html=1;rounded=0;exitX=1;exitY=0.5;exitDx=0;exitDy=0;entryX=0;entryY=0.5;entryDx=0;entryDy=0;" parent="1" source="KapmfFKW6zKVz0AodKhJ-12" target="KapmfFKW6zKVz0AodKhJ-16" edge="1">
          <mxGeometry relative="1" as="geometry">
            <mxPoint x="90" y="295" as="sourcePoint" />
            <mxPoint x="145" y="255" as="targetPoint" />
          </mxGeometry>
        </mxCell>
        <mxCell id="KapmfFKW6zKVz0AodKhJ-27" value="Gênero" style="ellipse;whiteSpace=wrap;html=1;align=center;" parent="1" vertex="1">
          <mxGeometry x="670" y="385" width="90" height="30" as="geometry" />
        </mxCell>
        <mxCell id="KapmfFKW6zKVz0AodKhJ-28" value="Impropriedade" style="ellipse;whiteSpace=wrap;html=1;align=center;" parent="1" vertex="1">
          <mxGeometry x="670" y="465" width="90" height="30" as="geometry" />
        </mxCell>
        <mxCell id="KapmfFKW6zKVz0AodKhJ-29" value="Duração" style="ellipse;whiteSpace=wrap;html=1;align=center;" parent="1" vertex="1">
          <mxGeometry x="670" y="425" width="90" height="30" as="geometry" />
        </mxCell>
        <mxCell id="KapmfFKW6zKVz0AodKhJ-31" value="Data de Exibiçao" style="ellipse;whiteSpace=wrap;html=1;align=center;" parent="1" vertex="1">
          <mxGeometry x="513" y="155" width="90" height="30" as="geometry" />
        </mxCell>
        <mxCell id="KapmfFKW6zKVz0AodKhJ-33" value="Hora de inicio" style="ellipse;whiteSpace=wrap;html=1;align=center;" parent="1" vertex="1">
          <mxGeometry x="513" y="195" width="90" height="30" as="geometry" />
        </mxCell>
        <mxCell id="KapmfFKW6zKVz0AodKhJ-34" value="Duração" style="ellipse;whiteSpace=wrap;html=1;align=center;dashed=1;" parent="1" vertex="1">
          <mxGeometry x="508" y="275" width="100" height="30" as="geometry" />
        </mxCell>
        <mxCell id="KapmfFKW6zKVz0AodKhJ-35" value="Qtde de ingressos" style="ellipse;whiteSpace=wrap;html=1;align=center;" parent="1" vertex="1">
          <mxGeometry x="513" y="235" width="90" height="30" as="geometry" />
        </mxCell>
        <mxCell id="KapmfFKW6zKVz0AodKhJ-36" value="" style="endArrow=none;html=1;rounded=0;entryX=0.5;entryY=0;entryDx=0;entryDy=0;exitX=0.5;exitY=1;exitDx=0;exitDy=0;" parent="1" source="KapmfFKW6zKVz0AodKhJ-6" target="KapmfFKW6zKVz0AodKhJ-31" edge="1">
          <mxGeometry relative="1" as="geometry">
            <mxPoint x="448" y="-75" as="sourcePoint" />
            <mxPoint x="523" y="-190" as="targetPoint" />
          </mxGeometry>
        </mxCell>
        <mxCell id="KapmfFKW6zKVz0AodKhJ-37" value="Titulo Original" style="ellipse;whiteSpace=wrap;html=1;align=center;" parent="1" vertex="1">
          <mxGeometry x="670" y="345" width="90" height="30" as="geometry" />
        </mxCell>
        <mxCell id="KapmfFKW6zKVz0AodKhJ-38" value="Estado" style="ellipse;whiteSpace=wrap;html=1;align=center;" parent="1" vertex="1">
          <mxGeometry x="423" y="590" width="90" height="30" as="geometry" />
        </mxCell>
        <mxCell id="KapmfFKW6zKVz0AodKhJ-39" value="País" style="ellipse;whiteSpace=wrap;html=1;align=center;" parent="1" vertex="1">
          <mxGeometry x="603" y="630" width="90" height="30" as="geometry" />
        </mxCell>
        <mxCell id="KapmfFKW6zKVz0AodKhJ-40" value="Titulo Português" style="ellipse;whiteSpace=wrap;html=1;align=center;" parent="1" vertex="1">
          <mxGeometry x="603" y="590" width="90" height="30" as="geometry" />
        </mxCell>
        <mxCell id="KapmfFKW6zKVz0AodKhJ-41" value="ID" style="ellipse;whiteSpace=wrap;html=1;align=center;fontStyle=4;" parent="1" vertex="1">
          <mxGeometry x="125" y="450" width="90" height="30" as="geometry" />
        </mxCell>
        <mxCell id="KapmfFKW6zKVz0AodKhJ-42" value="Nome" style="ellipse;whiteSpace=wrap;html=1;align=center;" parent="1" vertex="1">
          <mxGeometry x="125" y="490" width="90" height="30" as="geometry" />
        </mxCell>
        <mxCell id="KapmfFKW6zKVz0AodKhJ-43" value="Idade" style="ellipse;whiteSpace=wrap;html=1;align=center;" parent="1" vertex="1">
          <mxGeometry x="125" y="570" width="90" height="30" as="geometry" />
        </mxCell>
        <mxCell id="KapmfFKW6zKVz0AodKhJ-44" value="Nacionalidade" style="ellipse;whiteSpace=wrap;html=1;align=center;" parent="1" vertex="1">
          <mxGeometry x="125" y="530" width="90" height="30" as="geometry" />
        </mxCell>
        <mxCell id="KapmfFKW6zKVz0AodKhJ-45" value="" style="endArrow=none;html=1;rounded=0;entryX=0.5;entryY=1;entryDx=0;entryDy=0;exitX=0.5;exitY=0;exitDx=0;exitDy=0;" parent="1" source="KapmfFKW6zKVz0AodKhJ-38" target="KapmfFKW6zKVz0AodKhJ-4" edge="1">
          <mxGeometry relative="1" as="geometry">
            <mxPoint x="198" y="585" as="sourcePoint" />
            <mxPoint x="198" y="600" as="targetPoint" />
          </mxGeometry>
        </mxCell>
        <mxCell id="KapmfFKW6zKVz0AodKhJ-46" value="" style="endArrow=none;html=1;rounded=0;entryX=0.5;entryY=0;entryDx=0;entryDy=0;exitX=0.5;exitY=1;exitDx=0;exitDy=0;" parent="1" source="KapmfFKW6zKVz0AodKhJ-5" target="KapmfFKW6zKVz0AodKhJ-40" edge="1">
          <mxGeometry relative="1" as="geometry">
            <mxPoint x="108" y="595" as="sourcePoint" />
            <mxPoint x="108" y="610" as="targetPoint" />
          </mxGeometry>
        </mxCell>
        <mxCell id="KapmfFKW6zKVz0AodKhJ-47" value="" style="endArrow=none;html=1;rounded=0;entryX=0.5;entryY=0;entryDx=0;entryDy=0;exitX=0.5;exitY=1;exitDx=0;exitDy=0;" parent="1" source="KapmfFKW6zKVz0AodKhJ-3" target="KapmfFKW6zKVz0AodKhJ-41" edge="1">
          <mxGeometry relative="1" as="geometry">
            <mxPoint x="-360" y="915" as="sourcePoint" />
            <mxPoint x="-360" y="930" as="targetPoint" />
          </mxGeometry>
        </mxCell>
        <mxCell id="KapmfFKW6zKVz0AodKhJ-48" value="" style="endArrow=none;html=1;rounded=0;exitX=1;exitY=0.5;exitDx=0;exitDy=0;entryX=0;entryY=0.5;entryDx=0;entryDy=0;" parent="1" source="KapmfFKW6zKVz0AodKhJ-2" target="KapmfFKW6zKVz0AodKhJ-37" edge="1">
          <mxGeometry relative="1" as="geometry">
            <mxPoint x="318" y="925" as="sourcePoint" />
            <mxPoint x="660" y="420" as="targetPoint" />
          </mxGeometry>
        </mxCell>
        <mxCell id="KapmfFKW6zKVz0AodKhJ-51" value="Possui" style="shape=rhombus;perimeter=rhombusPerimeter;whiteSpace=wrap;html=1;align=center;" parent="1" vertex="1">
          <mxGeometry x="320" y="94" width="90" height="50" as="geometry" />
        </mxCell>
        <mxCell id="KapmfFKW6zKVz0AodKhJ-52" value="Possui" style="shape=rhombus;perimeter=rhombusPerimeter;whiteSpace=wrap;html=1;align=center;" parent="1" vertex="1">
          <mxGeometry x="310" y="395" width="90" height="50" as="geometry" />
        </mxCell>
        <mxCell id="KapmfFKW6zKVz0AodKhJ-53" value="" style="endArrow=none;html=1;rounded=0;exitX=1;exitY=0.5;exitDx=0;exitDy=0;entryX=0;entryY=0.5;entryDx=0;entryDy=0;" parent="1" source="KapmfFKW6zKVz0AodKhJ-52" target="KapmfFKW6zKVz0AodKhJ-2" edge="1">
          <mxGeometry relative="1" as="geometry">
            <mxPoint x="410" y="360" as="sourcePoint" />
            <mxPoint x="570" y="360" as="targetPoint" />
          </mxGeometry>
        </mxCell>
        <mxCell id="KapmfFKW6zKVz0AodKhJ-54" value="N" style="resizable=0;html=1;align=right;verticalAlign=bottom;" parent="KapmfFKW6zKVz0AodKhJ-53" connectable="0" vertex="1">
          <mxGeometry x="1" relative="1" as="geometry" />
        </mxCell>
        <mxCell id="KapmfFKW6zKVz0AodKhJ-57" value="Dirige" style="shape=rhombus;perimeter=rhombusPerimeter;whiteSpace=wrap;html=1;align=center;" parent="1" vertex="1">
          <mxGeometry x="-70" y="395" width="90" height="50" as="geometry" />
        </mxCell>
        <mxCell id="KapmfFKW6zKVz0AodKhJ-58" value="" style="endArrow=none;html=1;rounded=0;exitX=0.5;exitY=0;exitDx=0;exitDy=0;entryX=0;entryY=0.25;entryDx=0;entryDy=0;entryPerimeter=0;" parent="1" source="KapmfFKW6zKVz0AodKhJ-57" target="KapmfFKW6zKVz0AodKhJ-3" edge="1">
          <mxGeometry relative="1" as="geometry">
            <mxPoint x="400" y="370" as="sourcePoint" />
            <mxPoint x="498" y="370" as="targetPoint" />
            <Array as="points">
              <mxPoint x="30" y="395" />
              <mxPoint x="30" y="410" />
            </Array>
          </mxGeometry>
        </mxCell>
        <mxCell id="KapmfFKW6zKVz0AodKhJ-59" value="N" style="resizable=0;html=1;align=right;verticalAlign=bottom;" parent="KapmfFKW6zKVz0AodKhJ-58" connectable="0" vertex="1">
          <mxGeometry x="1" relative="1" as="geometry" />
        </mxCell>
        <mxCell id="KapmfFKW6zKVz0AodKhJ-60" value="" style="endArrow=none;html=1;rounded=0;exitX=0.5;exitY=1;exitDx=0;exitDy=0;entryX=0;entryY=0.75;entryDx=0;entryDy=0;" parent="1" source="KapmfFKW6zKVz0AodKhJ-57" target="KapmfFKW6zKVz0AodKhJ-3" edge="1">
          <mxGeometry relative="1" as="geometry">
            <mxPoint x="-150" y="510" as="sourcePoint" />
            <mxPoint x="10" y="510" as="targetPoint" />
            <Array as="points">
              <mxPoint x="30" y="445" />
              <mxPoint x="30" y="430" />
            </Array>
          </mxGeometry>
        </mxCell>
        <mxCell id="KapmfFKW6zKVz0AodKhJ-61" value="1" style="resizable=0;html=1;align=right;verticalAlign=bottom;" parent="KapmfFKW6zKVz0AodKhJ-60" connectable="0" vertex="1">
          <mxGeometry x="1" relative="1" as="geometry" />
        </mxCell>
        <mxCell id="KapmfFKW6zKVz0AodKhJ-62" value="" style="endArrow=none;html=1;rounded=0;exitX=1;exitY=0.5;exitDx=0;exitDy=0;entryX=0.008;entryY=0.5;entryDx=0;entryDy=0;entryPerimeter=0;" parent="1" source="KapmfFKW6zKVz0AodKhJ-51" target="KapmfFKW6zKVz0AodKhJ-6" edge="1">
          <mxGeometry relative="1" as="geometry">
            <mxPoint x="410" y="430" as="sourcePoint" />
            <mxPoint x="508" y="430" as="targetPoint" />
          </mxGeometry>
        </mxCell>
        <mxCell id="KapmfFKW6zKVz0AodKhJ-63" value="N" style="resizable=0;html=1;align=right;verticalAlign=bottom;" parent="KapmfFKW6zKVz0AodKhJ-62" connectable="0" vertex="1">
          <mxGeometry x="1" relative="1" as="geometry">
            <mxPoint x="-1" as="offset" />
          </mxGeometry>
        </mxCell>
        <mxCell id="KapmfFKW6zKVz0AodKhJ-64" value="" style="endArrow=none;html=1;rounded=0;exitX=0;exitY=0.5;exitDx=0;exitDy=0;entryX=1;entryY=0.5;entryDx=0;entryDy=0;entryPerimeter=0;" parent="1" source="KapmfFKW6zKVz0AodKhJ-51" target="KapmfFKW6zKVz0AodKhJ-1" edge="1">
          <mxGeometry relative="1" as="geometry">
            <mxPoint x="-5" y="515" as="sourcePoint" />
            <mxPoint x="130" y="510" as="targetPoint" />
          </mxGeometry>
        </mxCell>
        <mxCell id="KapmfFKW6zKVz0AodKhJ-65" value="1" style="resizable=0;html=1;align=right;verticalAlign=bottom;" parent="KapmfFKW6zKVz0AodKhJ-64" connectable="0" vertex="1">
          <mxGeometry x="1" relative="1" as="geometry">
            <mxPoint x="10" as="offset" />
          </mxGeometry>
        </mxCell>
        <mxCell id="KapmfFKW6zKVz0AodKhJ-66" value="Possui" style="shape=rhombus;perimeter=rhombusPerimeter;whiteSpace=wrap;html=1;align=center;" parent="1" vertex="1">
          <mxGeometry x="380" y="210" width="90" height="50" as="geometry" />
        </mxCell>
        <mxCell id="KapmfFKW6zKVz0AodKhJ-69" value="" style="endArrow=none;html=1;rounded=0;exitX=0.5;exitY=1;exitDx=0;exitDy=0;entryX=0.5;entryY=0;entryDx=0;entryDy=0;" parent="1" source="KapmfFKW6zKVz0AodKhJ-66" target="KapmfFKW6zKVz0AodKhJ-2" edge="1">
          <mxGeometry relative="1" as="geometry">
            <mxPoint x="-5" y="515" as="sourcePoint" />
            <mxPoint x="520" y="400" as="targetPoint" />
            <Array as="points">
              <mxPoint x="425" y="360" />
              <mxPoint x="558" y="360" />
            </Array>
          </mxGeometry>
        </mxCell>
        <mxCell id="KapmfFKW6zKVz0AodKhJ-70" value="1" style="resizable=0;html=1;align=right;verticalAlign=bottom;" parent="KapmfFKW6zKVz0AodKhJ-69" connectable="0" vertex="1">
          <mxGeometry x="1" relative="1" as="geometry" />
        </mxCell>
        <mxCell id="KapmfFKW6zKVz0AodKhJ-71" value="" style="triangle;whiteSpace=wrap;html=1;rotation=90;" parent="1" vertex="1">
          <mxGeometry x="546" y="480" width="24" height="40" as="geometry" />
        </mxCell>
        <mxCell id="KapmfFKW6zKVz0AodKhJ-72" value="" style="endArrow=none;html=1;rounded=0;entryX=0;entryY=0.5;entryDx=0;entryDy=0;exitX=0.5;exitY=1;exitDx=0;exitDy=0;" parent="1" source="KapmfFKW6zKVz0AodKhJ-2" target="KapmfFKW6zKVz0AodKhJ-71" edge="1">
          <mxGeometry relative="1" as="geometry">
            <mxPoint x="560" y="450" as="sourcePoint" />
            <mxPoint x="420" y="660" as="targetPoint" />
          </mxGeometry>
        </mxCell>
        <mxCell id="KapmfFKW6zKVz0AodKhJ-73" value="" style="endArrow=none;html=1;rounded=0;entryX=0.5;entryY=0;entryDx=0;entryDy=0;exitX=0.5;exitY=1;exitDx=0;exitDy=0;" parent="1" source="KapmfFKW6zKVz0AodKhJ-71" target="KapmfFKW6zKVz0AodKhJ-4" edge="1">
          <mxGeometry relative="1" as="geometry">
            <mxPoint x="568" y="450" as="sourcePoint" />
            <mxPoint x="568" y="498" as="targetPoint" />
          </mxGeometry>
        </mxCell>
        <mxCell id="KapmfFKW6zKVz0AodKhJ-74" value="" style="endArrow=none;html=1;rounded=0;entryX=0.5;entryY=0;entryDx=0;entryDy=0;exitX=0.5;exitY=0;exitDx=0;exitDy=0;" parent="1" source="KapmfFKW6zKVz0AodKhJ-71" target="KapmfFKW6zKVz0AodKhJ-5" edge="1">
          <mxGeometry relative="1" as="geometry">
            <mxPoint x="578" y="460" as="sourcePoint" />
            <mxPoint x="578" y="508" as="targetPoint" />
          </mxGeometry>
        </mxCell>
        <mxCell id="KapmfFKW6zKVz0AodKhJ-76" value="Diretor" style="ellipse;whiteSpace=wrap;html=1;align=center;" parent="1" vertex="1">
          <mxGeometry x="310" y="455" width="90" height="30" as="geometry" />
        </mxCell>
        <mxCell id="KapmfFKW6zKVz0AodKhJ-77" value="" style="endArrow=none;html=1;rounded=0;entryX=0.5;entryY=0;entryDx=0;entryDy=0;exitX=0.5;exitY=1;exitDx=0;exitDy=0;" parent="1" source="KapmfFKW6zKVz0AodKhJ-52" target="KapmfFKW6zKVz0AodKhJ-76" edge="1">
          <mxGeometry relative="1" as="geometry">
            <mxPoint x="568" y="450" as="sourcePoint" />
            <mxPoint x="568" y="498" as="targetPoint" />
          </mxGeometry>
        </mxCell>
        <mxCell id="KapmfFKW6zKVz0AodKhJ-78" value="" style="endArrow=none;html=1;rounded=0;exitX=0.5;exitY=0;exitDx=0;exitDy=0;" parent="1" source="KapmfFKW6zKVz0AodKhJ-66" edge="1">
          <mxGeometry relative="1" as="geometry">
            <mxPoint x="420" y="120" as="sourcePoint" />
            <mxPoint x="500" y="130" as="targetPoint" />
            <Array as="points">
              <mxPoint x="425" y="130" />
            </Array>
          </mxGeometry>
        </mxCell>
        <mxCell id="KapmfFKW6zKVz0AodKhJ-79" value="N" style="resizable=0;html=1;align=right;verticalAlign=bottom;" parent="KapmfFKW6zKVz0AodKhJ-78" connectable="0" vertex="1">
          <mxGeometry x="1" relative="1" as="geometry">
            <mxPoint x="-2" y="18" as="offset" />
          </mxGeometry>
        </mxCell>
        <mxCell id="KapmfFKW6zKVz0AodKhJ-80" value="" style="endArrow=none;html=1;rounded=0;exitX=0;exitY=0.5;exitDx=0;exitDy=0;entryX=1;entryY=0.5;entryDx=0;entryDy=0;" parent="1" source="KapmfFKW6zKVz0AodKhJ-52" target="KapmfFKW6zKVz0AodKhJ-3" edge="1">
          <mxGeometry relative="1" as="geometry">
            <mxPoint x="410" y="430" as="sourcePoint" />
            <mxPoint x="508" y="430" as="targetPoint" />
          </mxGeometry>
        </mxCell>
        <mxCell id="KapmfFKW6zKVz0AodKhJ-81" value="N" style="resizable=0;html=1;align=right;verticalAlign=bottom;" parent="KapmfFKW6zKVz0AodKhJ-80" connectable="0" vertex="1">
          <mxGeometry x="1" relative="1" as="geometry">
            <mxPoint x="11" as="offset" />
          </mxGeometry>
        </mxCell>
        <mxCell id="KapmfFKW6zKVz0AodKhJ-85" value="" style="endArrow=none;html=1;rounded=0;entryX=0;entryY=0.5;entryDx=0;entryDy=0;" parent="1" target="KapmfFKW6zKVz0AodKhJ-27" edge="1">
          <mxGeometry relative="1" as="geometry">
            <mxPoint x="620" y="420" as="sourcePoint" />
            <mxPoint x="680" y="370" as="targetPoint" />
          </mxGeometry>
        </mxCell>
        <mxCell id="KapmfFKW6zKVz0AodKhJ-86" value="" style="endArrow=none;html=1;rounded=0;exitX=1;exitY=0.5;exitDx=0;exitDy=0;entryX=0;entryY=0.5;entryDx=0;entryDy=0;" parent="1" source="KapmfFKW6zKVz0AodKhJ-2" target="KapmfFKW6zKVz0AodKhJ-29" edge="1">
          <mxGeometry relative="1" as="geometry">
            <mxPoint x="638" y="440" as="sourcePoint" />
            <mxPoint x="690" y="380" as="targetPoint" />
          </mxGeometry>
        </mxCell>
        <mxCell id="KapmfFKW6zKVz0AodKhJ-87" value="" style="endArrow=none;html=1;rounded=0;exitX=1;exitY=0.5;exitDx=0;exitDy=0;entryX=0;entryY=0.5;entryDx=0;entryDy=0;" parent="1" source="KapmfFKW6zKVz0AodKhJ-2" target="KapmfFKW6zKVz0AodKhJ-28" edge="1">
          <mxGeometry relative="1" as="geometry">
            <mxPoint x="630" y="335" as="sourcePoint" />
            <mxPoint x="682" y="275" as="targetPoint" />
          </mxGeometry>
        </mxCell>
      </root>
    </mxGraphModel>
  </diagram>
</mxfile>
